<?xml version="1.0" encoding="utf-8"?>
<!-- Generator: Adobe Illustrator 25.1.0, SVG Export Plug-In . SVG Version: 6.00 Build 0)  -->
<svg version="1.1" id="Layer_1" xmlns="http://www.w3.org/2000/svg" xmlns:xlink="http://www.w3.org/1999/xlink" x="0px" y="0px"
	 viewBox="0 0 252 252" style="enable-background:new 0 0 252 252;" xml:space="preserve">
<style type="text/css">
	.st0{fill:none;stroke:#4296D1;stroke-width:5;stroke-linecap:round;stroke-linejoin:round;stroke-miterlimit:10;}
	.st1{fill:none;stroke:#4296D1;stroke-width:2;stroke-linecap:round;stroke-linejoin:round;stroke-miterlimit:10;}
	.st2{fill:none;stroke:url(#SVGID_1_);stroke-width:5;stroke-linecap:round;stroke-linejoin:round;stroke-miterlimit:10;}
	.st3{fill:none;stroke:url(#SVGID_2_);stroke-width:5;stroke-linecap:round;stroke-linejoin:round;stroke-miterlimit:10;}
	.st4{fill:none;stroke:url(#SVGID_3_);stroke-width:5;stroke-linecap:round;stroke-linejoin:round;stroke-miterlimit:10;}
	.st5{fill:none;stroke:#EC1E24;stroke-width:2;stroke-linecap:round;stroke-linejoin:round;stroke-miterlimit:10;}
	.st6{fill:none;stroke:url(#SVGID_4_);stroke-width:5;stroke-linecap:round;stroke-linejoin:round;stroke-miterlimit:10;}
</style>
<g>
	<g>
		
			<image style="overflow:visible;opacity:0.65;enable-background:new    ;" width="279" height="321" xlink:href="B0F727A5.png"  transform="matrix(0.2378 0 0 0.2378 140.4729 50.16)">
		</image>
		<g>
			<polyline class="st0" points="158.5,68.2 149.5,59.2 165.3,59.2 197.9,91.8 172.3,117.4 			"/>
		</g>
	</g>
	<g>
		
			<image style="overflow:visible;opacity:0.65;enable-background:new    ;" width="238" height="263" xlink:href="B0F727A7.png"  transform="matrix(0.236 0 0 0.236 127.44 59.2104)">
		</image>
		<g>
			<polyline class="st1" points="135.1,66.7 135.1,113.8 156.7,113.8 175.9,94.6 163.1,81.8 			"/>
		</g>
	</g>
	<g>
		
			<image style="overflow:visible;opacity:0.65;enable-background:new    ;" width="325" height="363" xlink:href="B0F727A2.png"  transform="matrix(0.2347 0 0 0.2347 137.5395 116.88)">
		</image>
		<g>
			<polyline class="st0" points="146.4,125.9 171.1,125.9 205,159.9 171.8,193.1 154.4,193.1 163.9,183.6 			"/>
		</g>
	</g>
	<g>
		
			<image style="overflow:visible;opacity:0.65;enable-background:new    ;" width="254" height="275" xlink:href="B0F727A3.png"  transform="matrix(0.2362 0 0 0.2362 127.44 133.7197)">
		</image>
		<g>
			<polyline class="st1" points="134.9,191.2 134.9,141.4 161,141.4 179.9,160.3 167.1,173.1 			"/>
		</g>
	</g>
	
		<linearGradient id="SVGID_1_" gradientUnits="userSpaceOnUse" x1="147.03" y1="165.565" x2="200.39" y2="165.565" gradientTransform="matrix(1 0 0 -1 0 254)">
		<stop  offset="8.524463e-08" style="stop-color:#000000;stop-opacity:0"/>
		<stop  offset="0.2933" style="stop-color:#020202;stop-opacity:0.1863"/>
		<stop  offset="0.399" style="stop-color:#090909;stop-opacity:0.2534"/>
		<stop  offset="0.4743" style="stop-color:#141414;stop-opacity:0.3013"/>
		<stop  offset="0.5353" style="stop-color:#252525;stop-opacity:0.34"/>
		<stop  offset="0.5874" style="stop-color:#3B3B3B;stop-opacity:0.3731"/>
		<stop  offset="0.6336" style="stop-color:#575757;stop-opacity:0.4025"/>
		<stop  offset="0.6755" style="stop-color:#777777;stop-opacity:0.4291"/>
		<stop  offset="0.7139" style="stop-color:#9D9D9D;stop-opacity:0.4535"/>
		<stop  offset="0.7496" style="stop-color:#C8C8C8;stop-opacity:0.4762"/>
		<stop  offset="0.7813" style="stop-color:#F6F6F6;stop-opacity:0.4963"/>
		<stop  offset="0.7872" style="stop-color:#FFFFFF;stop-opacity:0.5"/>
		<stop  offset="0.8172" style="stop-color:#FFFFFF;stop-opacity:0.4293"/>
		<stop  offset="1" style="stop-color:#FFFFFF;stop-opacity:0"/>
	</linearGradient>
	<polyline class="st2" points="158.5,68.4 149.5,59.3 165.3,59.3 197.9,91.9 172.3,117.5 	"/>
	
		<linearGradient id="SVGID_2_" gradientUnits="userSpaceOnUse" x1="143.97" y1="94.52" x2="207.56" y2="94.52" gradientTransform="matrix(1 0 0 -1 0 254)">
		<stop  offset="8.524463e-08" style="stop-color:#000000;stop-opacity:0"/>
		<stop  offset="0.3" style="stop-color:#020202;stop-opacity:0.1863"/>
		<stop  offset="0.4081" style="stop-color:#090909;stop-opacity:0.2534"/>
		<stop  offset="0.4851" style="stop-color:#141414;stop-opacity:0.3013"/>
		<stop  offset="0.5474" style="stop-color:#252525;stop-opacity:0.34"/>
		<stop  offset="0.6008" style="stop-color:#3B3B3B;stop-opacity:0.3731"/>
		<stop  offset="0.648" style="stop-color:#575757;stop-opacity:0.4025"/>
		<stop  offset="0.6908" style="stop-color:#777777;stop-opacity:0.4291"/>
		<stop  offset="0.7301" style="stop-color:#9D9D9D;stop-opacity:0.4535"/>
		<stop  offset="0.7666" style="stop-color:#C8C8C8;stop-opacity:0.4762"/>
		<stop  offset="0.7991" style="stop-color:#F6F6F6;stop-opacity:0.4963"/>
		<stop  offset="0.805" style="stop-color:#FFFFFF;stop-opacity:0.5"/>
		<stop  offset="0.8326" style="stop-color:#FFFFFF;stop-opacity:0.4293"/>
		<stop  offset="1" style="stop-color:#FFFFFF;stop-opacity:0"/>
	</linearGradient>
	<polyline class="st3" points="146.5,125.9 171.1,125.9 205.1,159.9 171.8,193.1 154.4,193.1 163.9,183.6 	"/>
</g>
<g>
	<g>
		
			<image style="overflow:visible;opacity:0.55;enable-background:new    ;" width="338" height="650" xlink:href="B0F727AD.png"  transform="matrix(0.2372 0 0 0.2372 36.84 48.9231)">
		</image>
		<g>
			
				<linearGradient id="SVGID_3_" gradientUnits="userSpaceOnUse" x1="76.835" y1="197.43" x2="76.835" y2="58.54" gradientTransform="matrix(1 0 0 -1 0 254)">
				<stop  offset="4.795011e-07" style="stop-color:#EC1C24"/>
				<stop  offset="0.3539" style="stop-color:#EC1B26"/>
				<stop  offset="0.4814" style="stop-color:#EC1A2D"/>
				<stop  offset="0.5722" style="stop-color:#EC1638"/>
				<stop  offset="0.6457" style="stop-color:#EC1249"/>
				<stop  offset="0.7086" style="stop-color:#EB0C5F"/>
				<stop  offset="0.7634" style="stop-color:#EB057A"/>
				<stop  offset="0.7916" style="stop-color:#EB008B"/>
			</linearGradient>
			<path class="st4" d="M105.9,173.7L86.6,193H63.5l36.7-36.7c4.2-4.2,6.6-9.9,6.6-15.9v-14.6H46.9v-22.1c0-6,2.4-11.7,6.6-15.9
				l28.7-28.7H104L87,76"/>
		</g>
	</g>
	<g>
		
			<image style="overflow:visible;opacity:0.55;enable-background:new    ;" width="317" height="271" xlink:href="B0F727AF.png"  transform="matrix(0.2347 0 0 0.2347 53.7622 85.8)">
		</image>
		<g>
			<path class="st5" d="M68.8,94.6L65.4,98c-2.1,2.1-3.3,5-3.3,8v7.7h57.8v27.1"/>
		</g>
	</g>
	
		<linearGradient id="SVGID_4_" gradientUnits="userSpaceOnUse" x1="44.25" y1="127.585" x2="109.09" y2="127.585" gradientTransform="matrix(1 0 0 -1 0 254)">
		<stop  offset="4.741732e-07" style="stop-color:#FFFFFF;stop-opacity:0"/>
		<stop  offset="0.1348" style="stop-color:#FFFFFF;stop-opacity:0.3864"/>
		<stop  offset="0.157" style="stop-color:#FFFFFF;stop-opacity:0.45"/>
		<stop  offset="0.1632" style="stop-color:#F6F6F6;stop-opacity:0.4467"/>
		<stop  offset="0.1972" style="stop-color:#C8C8C8;stop-opacity:0.4285"/>
		<stop  offset="0.2355" style="stop-color:#9D9D9D;stop-opacity:0.4081"/>
		<stop  offset="0.2766" style="stop-color:#777777;stop-opacity:0.3861"/>
		<stop  offset="0.3214" style="stop-color:#575757;stop-opacity:0.3622"/>
		<stop  offset="0.3709" style="stop-color:#3B3B3B;stop-opacity:0.3358"/>
		<stop  offset="0.4268" style="stop-color:#252525;stop-opacity:0.306"/>
		<stop  offset="0.492" style="stop-color:#141414;stop-opacity:0.2712"/>
		<stop  offset="0.5727" style="stop-color:#090909;stop-opacity:0.2281"/>
		<stop  offset="0.6859" style="stop-color:#020202;stop-opacity:0.1677"/>
		<stop  offset="1" style="stop-color:#000000;stop-opacity:0"/>
	</linearGradient>
	<path class="st6" d="M105.7,174.1l-19.2,19.2H63.3l36.7-36.6c4.2-4.2,6.6-9.9,6.6-15.9v-14.6H46.8v-22.1c0-6,2.4-11.7,6.6-15.9
		L82,59.5h21.8l-17,17"/>
</g>
</svg>
