<?xml version="1.0" encoding="utf-8"?>
<!-- Generator: Adobe Illustrator 25.2.0, SVG Export Plug-In . SVG Version: 6.00 Build 0)  -->
<svg version="1.1" id="Layer_1" xmlns="http://www.w3.org/2000/svg" xmlns:xlink="http://www.w3.org/1999/xlink" x="0px" y="0px"
	 viewBox="0 0 432 432" style="enable-background:new 0 0 432 432;" xml:space="preserve">
<style type="text/css">
	.st0{fill:#EC008C;}
	.st1{fill:none;}
</style>
<g id="Layer_x0020_1">
	<g id="_378502288">
		<path class="st0" d="M216,31.5c50.9,0,97,20.7,130.3,54.1s54,79.5,54,130.5c0,50.9-20.7,97.1-54,130.5s-79.4,54.1-130.3,54.1
			S119,380,85.7,346.6s-54-79.5-54-130.5c0-50.9,20.7-97.1,54-130.5S165.1,31.5,216,31.5z M338.2,93.7
			C306.9,62.4,263.7,43.1,216,43.1S125.1,62.5,93.8,93.7C62.6,125,43.2,168.2,43.2,216s19.4,91,50.6,122.3s74.4,50.6,122.2,50.6
			s90.9-19.4,122.2-50.6c31.2-31.3,50.6-74.5,50.6-122.3S369.4,125,338.2,93.7z"/>
		<path class="st0" d="M358.5,333c-17.2,21-38.9,38-63.6,49.8c-23.9,11.4-50.7,17.7-78.9,17.7s-55-6.3-78.9-17.7
			c-24.8-11.8-46.7-29-63.9-50.1l0,0c-2-2.4-1.7-6.1,0.8-8.1c0.6-0.5,1.3-0.9,2-1.1c22-8.9,44.8-15.8,68.3-20.4
			c23.3-4.5,47.2-6.9,71.6-6.9s48.4,2.4,71.6,6.9c23.8,4.7,46.7,11.6,68.8,20.7l-2.2,5.3l2.2-5.3c3,1.2,4.4,4.5,3.2,7.5
			C359.4,331.8,358.9,332.4,358.5,333L358.5,333z M290,372.3c20.9-9.9,39.5-23.9,54.7-41c-19-7.3-38.9-13-59.3-17
			c-22.5-4.4-45.7-6.7-69.4-6.7c-23.8,0-46.9,2.3-69.4,6.7c-20.4,4-40.2,9.7-59.3,17c15.3,17.1,33.8,31,54.7,41
			c22.4,10.7,47.5,16.6,74,16.6S267.6,383,290,372.3z"/>
		<path class="st0" d="M344.7,100.6c-15.3-17.1-33.8-31-54.7-41C267.6,49,242.5,43,216,43s-51.6,6-74,16.6
			c-20.9,9.9-39.5,23.9-54.7,41c19,7.3,38.9,13,59.3,17c22.5,4.4,45.7,6.7,69.4,6.7c23.8,0,46.9-2.3,69.4-6.7
			C305.9,113.5,325.7,107.9,344.7,100.6z M294.9,49.2C319.6,60.9,341.3,78,358.5,99c0.5,0.5,0.9,1.2,1.2,1.8c1.2,3-0.2,6.3-3.2,7.5
			l-2.2-5.3l2.2,5.3c-22.1,9-45.1,16-68.8,20.7c-23.3,4.5-47.2,6.9-71.6,6.9s-48.4-2.4-71.6-6.9c-23.5-4.6-46.4-11.5-68.3-20.4
			c-0.7-0.2-1.4-0.6-2-1.1c-2.4-2-2.8-5.6-0.8-8.1l0,0c17.2-21.1,39-38.3,63.9-50.1c23.9-11.4,50.7-17.7,78.9-17.7
			S271.1,37.7,294.9,49.2L294.9,49.2z"/>
		<path class="st0" d="M216,31.5c28.3,0,53.6,21.2,71.6,55.4C305,120,315.8,165.7,315.8,216s-10.8,95.9-28.2,129.1
			c-18,34.3-43.3,55.4-71.6,55.4s-53.6-21.2-71.6-55.4C127,312,116.2,266.3,116.2,216s10.8-95.9,28.2-129.1
			C162.4,52.7,187.7,31.5,216,31.5z M277.4,92.3c-16.1-30.5-37.8-49.2-61.4-49.2c-23.7,0-45.4,18.8-61.4,49.2
			c-16.6,31.5-26.9,75.3-26.9,123.7c0,48.5,10.3,92.2,26.9,123.7c16.1,30.5,37.8,49.2,61.4,49.2c23.7,0,45.4-18.8,61.4-49.2
			c16.6-31.5,26.9-75.3,26.9-123.7C304.3,167.5,294,123.8,277.4,92.3z"/>
		<path class="st0" d="M37.4,210.2c-3.2,0-5.8,2.6-5.8,5.8s2.6,5.8,5.8,5.8h357.1c3.2,0,5.8-2.6,5.8-5.8s-2.6-5.8-5.8-5.8H37.4z"/>
	</g>
</g>
<rect x="-25.9" y="-25.9" class="st1" width="483.8" height="483.8"/>
</svg>
